<svg id="visual" viewBox="0 0 960 540" width="960" height="540" xmlns="http://www.w3.org/2000/svg" xmlns:xlink="http://www.w3.org/1999/xlink" version="1.1"><rect x="0" y="0" width="960" height="540" fill="#001220"></rect><path d="M0 290L22.8 295.7C45.7 301.3 91.3 312.7 137 310C182.7 307.3 228.3 290.7 274 293.3C319.7 296 365.3 318 411.2 328.3C457 338.7 503 337.3 548.8 325C594.7 312.7 640.3 289.3 686 282.5C731.7 275.7 777.3 285.3 823 292.8C868.7 300.3 914.3 305.7 937.2 308.3L960 311L960 541L937.2 541C914.3 541 868.7 541 823 541C777.3 541 731.7 541 686 541C640.3 541 594.7 541 548.8 541C503 541 457 541 411.2 541C365.3 541 319.7 541 274 541C228.3 541 182.7 541 137 541C91.3 541 45.7 541 22.8 541L0 541Z" fill="#fa7268"></path><path d="M0 374L22.8 366.2C45.7 358.3 91.3 342.7 137 345.5C182.7 348.3 228.3 369.7 274 378.2C319.7 386.7 365.3 382.3 411.2 377.2C457 372 503 366 548.8 357.3C594.7 348.7 640.3 337.3 686 338.8C731.7 340.3 777.3 354.7 823 354.8C868.7 355 914.3 341 937.2 334L960 327L960 541L937.2 541C914.3 541 868.7 541 823 541C777.3 541 731.7 541 686 541C640.3 541 594.7 541 548.8 541C503 541 457 541 411.2 541C365.3 541 319.7 541 274 541C228.3 541 182.7 541 137 541C91.3 541 45.7 541 22.8 541L0 541Z" fill="#eb5967"></path><path d="M0 435L22.8 429.2C45.7 423.3 91.3 411.7 137 404.7C182.7 397.7 228.3 395.3 274 397.8C319.7 400.3 365.3 407.7 411.2 414C457 420.3 503 425.7 548.8 427.2C594.7 428.7 640.3 426.3 686 421.5C731.7 416.7 777.3 409.3 823 410.3C868.7 411.3 914.3 420.7 937.2 425.3L960 430L960 541L937.2 541C914.3 541 868.7 541 823 541C777.3 541 731.7 541 686 541C640.3 541 594.7 541 548.8 541C503 541 457 541 411.2 541C365.3 541 319.7 541 274 541C228.3 541 182.7 541 137 541C91.3 541 45.7 541 22.8 541L0 541Z" fill="#da3f67"></path><path d="M0 458L22.8 455.3C45.7 452.7 91.3 447.3 137 450.8C182.7 454.3 228.3 466.7 274 468.5C319.7 470.3 365.3 461.7 411.2 456.2C457 450.7 503 448.3 548.8 450.7C594.7 453 640.3 460 686 464.2C731.7 468.3 777.3 469.7 823 471.5C868.7 473.3 914.3 475.7 937.2 476.8L960 478L960 541L937.2 541C914.3 541 868.7 541 823 541C777.3 541 731.7 541 686 541C640.3 541 594.7 541 548.8 541C503 541 457 541 411.2 541C365.3 541 319.7 541 274 541C228.3 541 182.7 541 137 541C91.3 541 45.7 541 22.8 541L0 541Z" fill="#c62368"></path></svg>